<?xml version="1.0" standalone="no"?>
<!DOCTYPE svg PUBLIC "-//W3C//DTD SVG 20010904//EN"
 "http://www.w3.org/TR/2001/REC-SVG-20010904/DTD/svg10.dtd">
<svg version="1.0" xmlns="http://www.w3.org/2000/svg"
 width="48.000000pt" height="48.000000pt" viewBox="0 0 48.000000 48.000000"
 preserveAspectRatio="xMidYMid meet">

<g transform="translate(0.000000,48.000000) scale(0.100000,-0.100000)"
fill="#000000" stroke="none">
<path d="M170 435 c0 -12 14 -15 70 -15 56 0 70 3 70 15 0 12 -14 15 -70 15
-56 0 -70 -3 -70 -15z"/>
<path d="M372 394 c4 -20 34 -41 44 -31 8 8 -24 47 -38 47 -5 0 -8 -7 -6 -16z"/>
<path d="M160 378 c-132 -67 -132 -249 0 -316 56 -28 104 -28 160 0 132 67
132 249 0 316 -24 12 -60 22 -80 22 -20 0 -56 -10 -80 -22z m150 -28 c45 -23
80 -80 80 -130 0 -50 -35 -107 -80 -130 -21 -11 -53 -20 -70 -20 -50 0 -107
35 -130 80 -25 50 -25 90 0 140 37 73 124 99 200 60z"/>
<path d="M226 324 c-9 -24 -7 -97 4 -114 15 -23 30 5 30 57 0 64 -19 96 -34
57z"/>
</g>
</svg>
