<?xml version="1.0" encoding="utf-8"?>
<!-- Generator: Adobe Illustrator 24.1.1, SVG Export Plug-In . SVG Version: 6.00 Build 0)  -->
<svg version="1.1" id="Layer_1" xmlns="http://www.w3.org/2000/svg" xmlns:xlink="http://www.w3.org/1999/xlink" x="0px" y="0px"
	 viewBox="0 0 512 512" style="enable-background:new 0 0 512 512;" xml:space="preserve">
<g>
	<path d="M153.6,0h204.8C443.25,0,512,68.78,512,153.6v204.8c0,84.85-68.75,153.6-153.6,153.6H153.6C68.78,512,0,443.25,0,358.4
		V153.6C0,68.78,68.78,0,153.6,0z M153.6,51.2c-56.55,0-102.4,45.85-102.4,102.4v204.8c0,56.58,45.85,102.4,102.4,102.4h204.8
		c56.58,0,102.4-45.82,102.4-102.4V153.6c0-56.55-45.82-102.4-102.4-102.4H153.6z M307.2,230.4H384c14.15,0,25.6,11.48,25.6,25.6
		c0,14.15-11.45,25.6-25.6,25.6h-76.8c-14.13,0-25.6-11.45-25.6-25.6C281.6,241.88,293.08,230.4,307.2,230.4z M256,332.8h128
		c14.15,0,25.6,11.48,25.6,25.6c0,14.15-11.45,25.6-25.6,25.6H256c-14.13,0-25.6-11.45-25.6-25.6
		C230.4,344.27,241.88,332.8,256,332.8z M256,128h128c14.15,0,25.6,11.48,25.6,25.6c0,14.15-11.45,25.6-25.6,25.6H256
		c-14.13,0-25.6-11.45-25.6-25.6C230.4,139.48,241.88,128,256,128z M149.2,262.23l54.32-54.35c10-9.98,26.23-9.98,36.23,0.02
		s9.98,26.2-0.02,36.2l-72.4,72.4c-9.97,10-26.2,10.02-36.2,0.02l-0.02-0.02l-36.2-36.17c-9.8-10.15-9.53-26.38,0.65-36.2
		c9.9-9.57,25.65-9.57,35.55,0L149.2,262.23z"/>
</g>
</svg>
